<svg width="50" height="50" viewBox="0 0 50 50" fill="none" xmlns="http://www.w3.org/2000/svg">
<path d="M19.6136 7.10044C19.6136 10.0752 22.0252 12.4868 25 12.4868L26.5799 7.13267L25 1.71411C22.0252 1.71411 19.6136 4.12563 19.6136 7.10044Z" fill="#FFEA80"/>
<path d="M25 1.71411V12.4868C27.9748 12.4868 30.3863 10.0752 30.3863 7.10044C30.3863 4.12563 27.9748 1.71411 25 1.71411Z" fill="#FFCC66"/>
<path d="M15.7168 15.6213C13.4545 17.9438 12.059 21.1146 12.059 24.6051V37.054C12.059 40.5094 14.8702 43.3208 18.3258 43.3208H25L27.999 29.2584L25 13.8489C20.9448 13.8289 16.8884 14.4186 15.7168 15.6213Z" fill="#706BEF"/>
<path d="M34.2707 15.7293C33.0974 14.4967 29.0493 13.8688 25 13.8489V43.3208H31.5576C35.0132 43.3208 37.8244 40.5095 37.8244 37.0541V24.6052C37.8244 21.1684 36.4717 18.0417 34.2707 15.7293Z" fill="#6260D0"/>
<path d="M13.0262 5.50024H6.71741V2.56128H11.6143L13.0262 5.50024Z" fill="#676E74"/>
<path d="M21.7955 13.1795L11.5568 9.24341V2.56128H20.2918V5.50024L21.7955 13.1795Z" fill="#706BEF"/>
<path d="M43.2824 5.50024H36.9736L38.3846 2.56128H43.2824V5.50024Z" fill="#575F64"/>
<path d="M28.2043 13.1795L29.5915 5.50024V2.56128H38.4432V9.24341L28.2043 13.1795Z" fill="#6260D0"/>
<path d="M20.9689 6.96992C20.9689 4.74727 22.7771 2.93896 24.9998 2.93896L25.8701 1.84316L24.9998 0C21.1566 0 18.03 3.12676 18.03 6.96992C18.03 9.18799 19.0727 11.1658 20.6923 12.4432C18.7728 13.1159 17.0593 14.2309 15.6748 15.6655C16.4869 20.0776 20.3528 23.4206 24.9998 23.4206L26.7732 17.1957L24.9998 11.0008C22.7771 11.0008 20.9689 9.19258 20.9689 6.96992Z" fill="#7D89E5"/>
<path d="M34.3053 15.7671C32.9233 14.3037 31.2029 13.1635 29.2708 12.4718C30.9113 11.1954 31.9696 9.20449 31.9696 6.96992C31.9696 3.12676 28.8429 0 24.9998 0V2.93896C27.2224 2.93896 29.0306 4.74727 29.0306 6.96992C29.0306 9.19258 27.2224 11.0008 24.9998 11.0008V23.4206C29.6111 23.4206 33.4529 20.1288 34.3053 15.7671Z" fill="#706BEF"/>
<path d="M20.5879 35.1907V50H25L26.7089 43.6434L25 35.1907H20.5879Z" fill="#676E74"/>
<path d="M25 35.1907H29.4121V50H25V35.1907Z" fill="#575F64"/>
<path d="M24.9417 25.8918C20.7013 25.8918 17.2515 29.3417 17.2515 33.5821V38.1297H25L26.6444 32.6774L25 25.8933C24.9805 25.8931 24.9612 25.8918 24.9417 25.8918Z" fill="#7D89E5"/>
<path d="M25 25.8933V38.1297H32.6319V33.5821C32.6319 29.3612 29.2136 25.9249 25 25.8933Z" fill="#706BEF"/>
</svg>
