<svg width="45" height="45" viewBox="0 0 45 45" fill="none" xmlns="http://www.w3.org/2000/svg">
<path d="M30.3397 22.8411L29.1212 22.138L34.5936 12.6655C34.6868 12.504 34.8403 12.3862 35.0204 12.3379L36.3788 11.9736L36.7423 13.3321L35.6658 13.6211L30.3397 22.8411Z" fill="#3D9AE2"/>
<path d="M39.3396 25.7416L35.9435 26.6486C35.854 26.673 35.7604 26.6795 35.6684 26.6676C35.5763 26.6556 35.4875 26.6256 35.4071 26.5792C35.3267 26.5328 35.2563 26.4709 35.1999 26.3971C35.1435 26.3234 35.1023 26.2392 35.0787 26.1494L34.7131 24.7924C34.6659 24.6124 34.6919 24.4211 34.7855 24.2604C34.8791 24.0996 35.0325 23.9824 35.2123 23.9346L38.6084 23.0205L39.3396 25.7416Z" fill="#E6E7E8"/>
<path d="M39.4312 31.535L37.6945 32.0061L36.7172 32.2663C36.5834 31.7211 36.3421 31.2081 36.0076 30.7573C35.673 30.3065 35.2518 29.927 34.7687 29.6411C34.2856 29.3552 33.7503 29.1685 33.1941 29.0921C32.638 29.0157 32.0722 29.0511 31.5299 29.1961C30.9876 29.3412 30.4797 29.593 30.0359 29.9369C29.5922 30.2807 29.2215 30.7097 28.9457 31.1986C28.6698 31.6875 28.4943 32.2266 28.4295 32.7842C28.3646 33.3418 28.4117 33.9068 28.568 34.446L27.5906 34.7061L23.1328 35.9014L20.2219 25.0382L29.7281 22.4928L37.0617 21.7757C37.3931 21.7446 37.7248 21.8322 37.9978 22.0227C38.2707 22.2133 38.4672 22.4945 38.5523 22.8163L38.6086 23.0202L35.2125 23.9343C35.0327 23.9821 34.8792 24.0993 34.7857 24.26C34.6921 24.4208 34.6661 24.6121 34.7133 24.7921L35.0789 26.1491C35.1025 26.2389 35.1437 26.3231 35.2001 26.3968C35.2565 26.4706 35.3269 26.5325 35.4073 26.5789C35.4877 26.6253 35.5765 26.6553 35.6686 26.6673C35.7606 26.6792 35.8542 26.6727 35.9437 26.6483L39.3398 25.7413L40.064 28.4553L40.4297 29.8124C40.4774 29.9911 40.4895 30.1774 40.4652 30.3607C40.4408 30.5441 40.3806 30.7208 40.2878 30.8808C40.1951 31.0409 40.0717 31.181 39.9247 31.2933C39.7777 31.4055 39.61 31.4877 39.4312 31.535Z" fill="#5AAAE7"/>
<path d="M11.2851 22.1274L10.7437 26.6414C10.7402 26.7506 10.7622 26.8591 10.8079 26.9583C10.8537 27.0575 10.9219 27.1447 11.0072 27.2129C11.0925 27.2811 11.1925 27.3286 11.2993 27.3514C11.4062 27.3743 11.5168 27.3719 11.6226 27.3446L20.2218 25.0383L23.1327 35.9016L17.1562 37.5047L16.3405 37.7227C16.0506 36.642 15.3432 35.7208 14.374 35.1618C13.4048 34.6027 12.2532 34.4515 11.1726 34.7414C10.0919 35.0314 9.17072 35.7388 8.61163 36.708C8.05254 37.6772 7.90135 38.8288 8.19133 39.9094L7.3757 40.1274L5.47726 40.6336C5.29905 40.6827 5.11287 40.6959 4.9295 40.6726C4.74614 40.6492 4.56923 40.5897 4.40902 40.4975C4.24881 40.4053 4.10848 40.2822 3.99615 40.1354C3.88382 39.9886 3.80172 39.821 3.75461 39.6422L3.38898 38.2852L1.70851 32.0133C1.61883 31.6821 1.65376 31.3296 1.80668 31.0224C1.9596 30.7153 2.21988 30.4749 2.5382 30.3469L6.63742 28.6735L8.99992 20.0321C9.06335 19.7942 9.18842 19.5773 9.36249 19.4032C9.53656 19.2292 9.75347 19.1041 9.99133 19.0407L21.389 15.9891C21.6118 15.9302 21.8457 15.9269 22.0701 15.9797C22.2945 16.0324 22.5024 16.1395 22.6757 16.2914L24.539 17.9297L24.3913 18.0985L18.7663 19.6032L11.7984 21.4735C11.6522 21.5097 11.5223 21.5937 11.4293 21.7122C11.3363 21.8306 11.2855 21.9768 11.2851 22.1274Z" fill="#3D9AE2"/>
<path d="M18.7663 19.603L20.2218 25.0382L11.6226 27.3444C11.5168 27.3718 11.4061 27.3742 11.2993 27.3513C11.1925 27.3284 11.0925 27.281 11.0072 27.2128C10.9219 27.1445 10.8536 27.0574 10.8079 26.9582C10.7622 26.859 10.7402 26.7505 10.7436 26.6413L11.285 22.1272C11.2855 21.9766 11.3362 21.8305 11.4292 21.712C11.5222 21.5936 11.6521 21.5095 11.7983 21.4733L18.7663 19.603Z" fill="#D1D3D4"/>
<path d="M29.7282 22.493L20.2219 25.0383L18.7664 19.6031L24.3914 18.0984L24.5391 17.9297L29.7282 22.493Z" fill="#E6E7E8"/>
<path d="M16.3406 37.7226C16.5569 38.5284 16.5293 39.3803 16.2614 40.1706C15.9934 40.9608 15.4972 41.6538 14.8354 42.162C14.1736 42.6701 13.376 42.9707 12.5434 43.0255C11.7108 43.0804 10.8807 42.8872 10.1579 42.4702C9.43518 42.0533 8.8523 41.4314 8.48299 40.6832C8.11367 39.935 7.97453 39.0941 8.08314 38.2668C8.19175 37.4395 8.54324 36.663 9.09317 36.0354C9.6431 35.4079 10.3668 34.9576 11.1726 34.7413C11.7077 34.5977 12.2658 34.5609 12.8152 34.6331C13.3645 34.7052 13.8942 34.8848 14.3741 35.1616C14.854 35.4384 15.2746 35.8071 15.612 36.2465C15.9495 36.6859 16.197 37.1875 16.3406 37.7226Z" fill="#57565C"/>
<path d="M36.7171 32.2662C36.932 33.0722 36.9031 33.9239 36.6341 34.7135C36.3651 35.5031 35.8681 36.1952 35.2058 36.7024C34.5435 37.2096 33.7457 37.5091 32.9133 37.5629C32.0808 37.6168 31.2511 37.4227 30.529 37.0052C29.8068 36.5876 29.2247 35.9653 28.8561 35.217C28.4875 34.4686 28.3491 33.6278 28.4583 32.8008C28.5675 31.9738 28.9194 31.1978 29.4695 30.5707C30.0197 29.9437 30.7434 29.4938 31.5491 29.278C32.0847 29.1345 32.6433 29.098 33.1929 29.1706C33.7426 29.2431 34.2726 29.4233 34.7525 29.7009C35.2325 29.9784 35.6531 30.3478 35.9902 30.788C36.3273 31.2282 36.5743 31.7305 36.7171 32.2662Z" fill="#57565C"/>
<path d="M12.2688 43.7378C11.3501 43.7381 10.4496 43.4813 9.66929 42.9964C8.88897 42.5115 8.25994 41.8179 7.85338 40.994C7.44682 40.1701 7.27897 39.2489 7.36881 38.3346C7.45865 37.4203 7.80259 36.5494 8.36173 35.8204C8.92087 35.0915 9.67288 34.5335 10.5327 34.2098C11.3924 33.886 12.3257 33.8094 13.2267 33.9885C14.1278 34.1676 14.9608 34.5954 15.6314 35.2234C16.302 35.8513 16.7834 36.6545 17.0212 37.5419C17.2166 38.271 17.2417 39.0352 17.0945 39.7756C16.9473 40.5159 16.6319 41.2125 16.1725 41.8114C15.7131 42.4104 15.1221 42.8956 14.4452 43.2296C13.7683 43.5637 13.0236 43.7376 12.2688 43.7378ZM12.2688 35.3003C11.5343 35.3006 10.8184 35.531 10.2215 35.9591C9.62464 36.3872 9.17685 36.9914 8.94099 37.687C8.70514 38.3826 8.69307 39.1346 8.90648 39.8374C9.1199 40.5402 9.54807 41.1585 10.1309 41.6055C10.7137 42.0525 11.4219 42.3058 12.156 42.3297C12.8901 42.3536 13.6132 42.147 14.2239 41.7389C14.8346 41.3307 15.3021 40.7416 15.5608 40.0542C15.8195 39.3667 15.8564 38.6156 15.6663 37.9061C15.4695 37.1554 15.0285 36.4916 14.4129 36.0192C13.7973 35.5468 13.042 35.2926 12.266 35.2968L12.2688 35.3003Z" fill="#3E3D42"/>
<path d="M32.6341 38.2802C31.38 38.2811 30.1725 37.805 29.2564 36.9485C28.3404 36.0919 27.7844 34.919 27.7012 33.6676C27.6181 32.4162 28.014 31.1801 28.8086 30.2098C29.6033 29.2396 30.7372 28.6079 31.9804 28.4429C33.2237 28.2778 34.4831 28.5918 35.5034 29.3211C36.5237 30.0505 37.2284 31.1405 37.4746 32.3702C37.7208 33.6 37.4901 34.8773 36.8292 35.9432C36.1684 37.0091 35.1269 37.7837 33.9159 38.1101C33.4981 38.2233 33.0671 38.2805 32.6341 38.2802ZM32.6489 29.8427C32.3403 29.8431 32.033 29.8838 31.7348 29.9637C31.0632 30.1435 30.4599 30.5185 30.0014 31.0412C29.5428 31.5639 29.2496 32.2109 29.1587 32.9003C29.0679 33.5897 29.1835 34.2905 29.4909 34.9142C29.7984 35.5378 30.2839 36.0563 30.8861 36.4041C31.4882 36.7518 32.1799 36.9132 32.8738 36.8677C33.5677 36.8223 34.2325 36.5722 34.7842 36.1489C35.3358 35.7257 35.7496 35.1483 35.9732 34.4899C36.1967 33.8315 36.22 33.1216 36.0401 32.4499C35.8398 31.7035 35.3994 31.0438 34.7869 30.5726C34.1744 30.1014 33.4238 29.8449 32.651 29.8427H32.6489Z" fill="#3E3D42"/>
<path d="M18.0922 19.7832L19.4506 19.419L23.8212 35.7203L22.4628 36.0845L18.0922 19.7832Z" fill="#1E81CE"/>
<path d="M37.1736 28.4995L39.8901 27.7712L40.2543 29.1294L37.5378 29.8578L37.1736 28.4995Z" fill="#FFD422"/>
<path d="M22.8127 26.5269L25.5293 25.7985L25.8935 27.1568L23.1769 27.8851L22.8127 26.5269Z" fill="#3D9AE2"/>
<path d="M12.6248 29.2588L15.3413 28.5304L15.7055 29.8887L12.9889 30.6171L12.6248 29.2588Z" fill="#1E81CE"/>
<path d="M11.4143 38.3198L12.7726 37.9556L13.1368 39.3139L11.7785 39.6781L11.4143 38.3198Z" fill="#3E3D42"/>
<path d="M31.7899 32.8555L33.1482 32.4913L33.5124 33.8496L32.1541 34.2138L31.7899 32.8555Z" fill="#3E3D42"/>
<path d="M3.2146 37.6055L5.93115 36.8771L6.29533 38.2354L3.57878 38.9638L3.2146 37.6055Z" fill="#FF6243"/>
<path d="M39.375 35.1562H37.9688V33.75H39.375C39.5611 33.7489 39.7393 33.6745 39.871 33.5428C40.0026 33.4112 40.077 33.233 40.0781 33.0469V11.9531H41.4844V33.0469C41.4829 33.6059 41.2602 34.1415 40.8649 34.5368C40.4697 34.9321 39.934 35.1548 39.375 35.1562Z" fill="#898890"/>
<path d="M29.0388 14.0625H27.6326C27.6297 13.4559 27.8659 12.8726 28.29 12.439C28.3928 12.3495 28.4751 12.239 28.5316 12.115C28.588 11.991 28.6172 11.8563 28.6172 11.72C28.6172 11.5838 28.588 11.4491 28.5316 11.3251C28.4751 11.2011 28.3928 11.0906 28.29 11.0011C27.8687 10.5651 27.6333 9.98247 27.6333 9.37617C27.6333 8.76988 27.8687 8.18728 28.29 7.75125C28.3926 7.66144 28.4749 7.55074 28.5313 7.42657C28.5877 7.3024 28.6169 7.16762 28.617 7.03125H30.0232C30.0259 7.63806 29.7901 8.22163 29.3665 8.65617C29.2636 8.7458 29.1811 8.85644 29.1246 8.98064C29.0681 9.10484 29.0388 9.23971 29.0388 9.37617C29.0388 9.51263 29.0681 9.6475 29.1246 9.7717C29.1811 9.8959 29.2636 10.0065 29.3665 10.0962C29.788 10.5318 30.0236 11.1142 30.0236 11.7204C30.0236 12.3266 29.788 12.909 29.3665 13.3446C29.2639 13.4341 29.1817 13.5444 29.1252 13.6682C29.0687 13.792 29.0392 13.9264 29.0388 14.0625Z" fill="#D1D3D4"/>
<path d="M33.2576 12.6562H31.8513C31.8485 12.0497 32.0846 11.4664 32.5088 11.0327C32.6115 10.9432 32.6939 10.8328 32.7503 10.7087C32.8068 10.5847 32.836 10.45 32.836 10.3138C32.836 10.1775 32.8068 10.0429 32.7503 9.91883C32.6939 9.79482 32.6115 9.68434 32.5088 9.59484C32.0875 9.15881 31.852 8.57621 31.852 7.96992C31.852 7.36363 32.0875 6.78103 32.5088 6.345C32.6114 6.25519 32.6936 6.14449 32.75 6.02032C32.8064 5.89615 32.8356 5.76137 32.8357 5.625H34.242C34.2447 6.23181 34.0088 6.81538 33.5852 7.24992C33.4823 7.33955 33.3999 7.45019 33.3433 7.57439C33.2868 7.69859 33.2576 7.83346 33.2576 7.96992C33.2576 8.10638 33.2868 8.24125 33.3433 8.36545C33.3999 8.48965 33.4823 8.60029 33.5852 8.68992C34.0068 9.12555 34.2424 9.70797 34.2424 10.3141C34.2424 10.9203 34.0068 11.5027 33.5852 11.9384C33.4827 12.0278 33.4004 12.1381 33.3439 12.2619C33.2874 12.3857 33.258 12.5202 33.2576 12.6562Z" fill="#D1D3D4"/>
<path d="M40.7812 4.92188C41.5579 4.92188 42.1875 4.29228 42.1875 3.51562C42.1875 2.73897 41.5579 2.10938 40.7812 2.10938C40.0046 2.10938 39.375 2.73897 39.375 3.51562C39.375 4.29228 40.0046 4.92188 40.7812 4.92188Z" fill="#787680"/>
<path d="M40.7855 12.6563C40.4158 12.6568 40.0496 12.5845 39.7079 12.4434C39.3662 12.3023 39.0556 12.0952 38.794 11.834C38.5324 11.5728 38.3248 11.2625 38.1832 10.921C38.0416 10.5795 37.9687 10.2135 37.9688 9.84375H39.375C39.3748 10.0506 39.4203 10.255 39.5082 10.4423C39.596 10.6296 39.7242 10.7952 39.8834 10.9272C40.0426 11.0593 40.229 11.1547 40.4293 11.2064C40.6296 11.2582 40.8388 11.2652 41.0421 11.2268C41.3404 11.1711 41.6127 11.0204 41.8183 10.7972C42.0239 10.5741 42.1518 10.2904 42.1829 9.98849C42.214 9.68664 42.1466 9.38282 41.9908 9.12241C41.835 8.86201 41.5991 8.65899 41.3184 8.54367C40.9444 8.3829 40.6267 8.11443 40.4058 7.77245C40.185 7.43048 40.0709 7.03048 40.0781 6.62344V4.92188H41.4844V6.62344C41.4792 6.75173 41.5115 6.87874 41.5775 6.9889C41.6434 7.09906 41.7401 7.18758 41.8556 7.24359C42.418 7.47509 42.8901 7.8826 43.2013 8.40504C43.5125 8.92748 43.646 9.53671 43.5817 10.1414C43.5175 10.7461 43.259 11.3137 42.845 11.7591C42.431 12.2045 41.8838 12.5038 41.2854 12.612C41.1204 12.6413 40.9531 12.6561 40.7855 12.6563Z" fill="#898890"/>
<path d="M40.7813 5.625C40.3641 5.625 39.9562 5.50129 39.6093 5.26951C39.2625 5.03772 38.9921 4.70829 38.8324 4.32285C38.6728 3.93741 38.631 3.51329 38.7124 3.10411C38.7938 2.69493 38.9947 2.31907 39.2897 2.02407C39.5847 1.72907 39.9606 1.52817 40.3697 1.44678C40.7789 1.36539 41.203 1.40716 41.5885 1.56682C41.9739 1.72647 42.3034 1.99683 42.5351 2.34372C42.7669 2.6906 42.8906 3.09843 42.8906 3.51563C42.8906 4.07507 42.6684 4.61159 42.2728 5.00718C41.8772 5.40276 41.3407 5.625 40.7813 5.625ZM40.7813 2.8125C40.6422 2.8125 40.5062 2.85374 40.3906 2.931C40.275 3.00826 40.1849 3.11807 40.1317 3.24655C40.0784 3.37503 40.0645 3.51641 40.0916 3.6528C40.1188 3.78919 40.1857 3.91448 40.2841 4.01281C40.3824 4.11114 40.5077 4.17811 40.6441 4.20524C40.7805 4.23237 40.9218 4.21845 41.0503 4.16523C41.1788 4.11201 41.2886 4.02189 41.3659 3.90626C41.4431 3.79063 41.4844 3.65469 41.4844 3.51563C41.4844 3.32915 41.4103 3.1503 41.2784 3.01844C41.1466 2.88658 40.9677 2.8125 40.7813 2.8125Z" fill="#57565C"/>
</svg>
