<svg width="50" height="50" viewBox="0 0 50 50" fill="none" xmlns="http://www.w3.org/2000/svg">
<g clip-path="url(#clip0)">
<path d="M48.9639 24.0692C47.6028 23.1155 44.7472 21.7583 39.5161 21.7583H38.7096L28.3962 16.9456C27.2217 16.3975 25.9411 16.1133 24.6449 16.1133H15.675C14.9101 16.1133 14.1537 16.2685 13.451 16.5699L4.13857 20.5608C3.53622 20.8191 2.88773 20.9522 2.23236 20.9522H1.61285C0.722122 20.9518 0 21.674 0 22.5647V27.6703C0 28.45 0.557327 29.118 1.32446 29.2572L8.87108 30.6293V31.4358H48.3871C49.2779 31.4358 50 30.7137 50 29.8229V26.0563C50 25.2628 49.6136 24.5243 48.9639 24.0692Z" fill="#FF8086"/>
<path d="M15.8119 17.7261H22.3713V21.7582H12.6885C11.187 21.7582 10.7437 19.712 12.1109 19.0906L14.4772 18.0152C14.8964 17.8245 15.3515 17.7261 15.8119 17.7261Z" fill="#E5646E"/>
<path d="M49.2401 28.21C48.608 28.21 48.0595 27.8289 47.7726 27.2655C46.8403 25.4333 44.9387 24.1775 42.7418 24.1775C40.5453 24.1775 38.6436 25.4333 37.711 27.2655C37.4245 27.8289 36.8759 28.21 36.2438 28.21H20.1611V24.9843H12.4451C12.0575 24.9843 11.6673 24.9191 11.319 24.7489C10.5785 24.3869 9.75075 24.1775 8.87108 24.1775C7.98988 24.1775 7.16057 24.3858 6.41975 24.7486C6.07109 24.9191 5.6797 24.9843 5.29137 24.9843H0V27.6702C0 27.7648 0.00877381 27.8575 0.0247955 27.9479C0.0404357 28.0372 0.0640869 28.1238 0.0938416 28.2081C0.094223 28.2085 0.094223 28.2092 0.094223 28.21C0.283432 28.7414 0.743103 29.1515 1.32446 29.2571L8.87108 30.6293L10.4839 31.4357H48.3871C49.2779 31.4357 50 30.7136 50 29.8229V28.21H49.2401Z" fill="#E5646E"/>
<path d="M48.387 31.4356H12.0967V29.8228H49.9999C49.9999 30.7135 49.2778 31.4356 48.387 31.4356Z" fill="#DB4655"/>
<path d="M38.7096 21.7582L30.0689 17.7261H18.4848C17.7856 17.7261 17.4083 18.5466 17.8634 19.0776L19.437 20.9136C19.8967 21.4496 20.5677 21.7586 21.2741 21.7586H38.7096V21.7582Z" fill="#C3DDFF"/>
<path d="M18.0878 19.3389L19.437 20.9132C19.8967 21.4495 20.5677 21.7581 21.2742 21.7581H38.7096L33.5255 19.3389H18.0878Z" fill="#A4CCFF"/>
<path d="M20.1613 24.9844H17.9355C17.5235 24.9844 17.2881 25.4547 17.5353 25.7843L18.8708 27.565C19.1756 27.9709 19.6536 28.2101 20.1613 28.2101H22.3868C22.7988 28.2101 23.0342 27.7397 22.787 27.4098L21.4515 25.6294C21.1471 25.2232 20.6687 24.9844 20.1613 24.9844Z" fill="#6F6571"/>
<path d="M1.61285 23.3711H0V24.9843H1.61285C2.05879 24.9843 2.41928 24.6235 2.41928 24.1775C2.41928 23.732 2.05879 23.3711 1.61285 23.3711Z" fill="#FF9A9F"/>
<path d="M46.7742 29.8229C46.7742 32.0499 44.9688 33.855 42.7417 33.855C40.5151 33.855 38.7096 32.0499 38.7096 29.8229C38.7096 27.5959 40.5151 25.7908 42.7417 25.7908C44.9688 25.7908 46.7742 27.5959 46.7742 29.8229Z" fill="#5D5360"/>
<path d="M45.1609 29.8231C45.1609 31.159 44.078 32.2424 42.7417 32.2424C41.4058 32.2424 40.3224 31.159 40.3224 29.8231C40.3224 28.4868 41.4058 27.4038 42.7417 27.4038C44.078 27.4038 45.1609 28.4868 45.1609 29.8231Z" fill="#B6B1B7"/>
<path d="M42.7418 27.4038C41.8667 27.4038 41.1004 27.8669 40.6758 28.5635C41.0424 28.3399 41.4746 28.2102 41.9354 28.2102C43.2717 28.2102 44.3547 29.2932 44.3547 30.6295C44.3547 31.0903 44.225 31.5222 44.0011 31.8887C44.6976 31.4638 45.1611 30.6986 45.1611 29.8231C45.1615 28.4868 44.0781 27.4038 42.7418 27.4038Z" fill="#9B959D"/>
<path d="M43.5482 29.823C43.5482 30.2682 43.1873 30.6295 42.7417 30.6295C42.2966 30.6295 41.9353 30.2682 41.9353 29.823C41.9353 29.3775 42.2966 29.0166 42.7417 29.0166C43.1873 29.0166 43.5482 29.3775 43.5482 29.823Z" fill="#DAD8DB"/>
<path d="M12.9033 29.8229C12.9033 32.0499 11.0981 33.855 8.87112 33.855C6.6441 33.855 4.83899 32.0499 4.83899 29.8229C4.83899 27.5959 6.6441 25.7908 8.87112 25.7908C11.0981 25.7908 12.9033 27.5959 12.9033 29.8229Z" fill="#5D5360"/>
<path d="M11.2905 29.8231C11.2905 31.159 10.2071 32.2424 8.87119 32.2424C7.5349 32.2424 6.4519 31.159 6.4519 29.8231C6.4519 28.4868 7.5349 27.4038 8.87119 27.4038C10.2071 27.4038 11.2905 28.4868 11.2905 29.8231Z" fill="#B6B1B7"/>
<path d="M8.87097 27.4038C7.9955 27.4038 7.22989 27.8673 6.80493 28.5635C7.17152 28.3399 7.60373 28.2102 8.06454 28.2102C9.40045 28.2102 10.4838 29.2932 10.4838 30.6295C10.4838 31.0903 10.3537 31.5225 10.1302 31.8887C10.8268 31.4642 11.2903 30.6986 11.2903 29.8231C11.2903 28.4868 10.2069 27.4038 8.87097 27.4038Z" fill="#9B959D"/>
<path d="M9.67755 29.823C9.67755 30.2682 9.3163 30.6295 8.87112 30.6295C8.42557 30.6295 8.0647 30.2682 8.0647 29.823C8.0647 29.3775 8.42557 29.0166 8.87112 29.0166C9.3163 29.0166 9.67755 29.3775 9.67755 29.823Z" fill="#DAD8DB"/>
<path d="M23.1319 21.7582H25.2552L21.7987 17.7261H19.6758L23.1319 21.7582Z" fill="#857E87"/>
<path d="M21.0582 19.3389L23.1319 21.7581H25.2552L23.1815 19.3389H21.0582Z" fill="#6F6571"/>
<path d="M48.3871 25.7907H49.9851C49.9141 25.1556 49.6074 24.5803 49.1073 24.1775H48.3871C47.9416 24.1775 47.5807 24.5387 47.5807 24.9843C47.5807 25.4295 47.9416 25.7907 48.3871 25.7907Z" fill="#FFC269"/>
<path d="M20.9411 27.7649L18.8556 24.9844H17.9355C17.5235 24.9844 17.2881 25.4547 17.5353 25.7843L18.8708 27.565C19.1756 27.9709 19.6536 28.2101 20.1613 28.2101H21.8314C21.4812 28.2101 21.1513 28.0449 20.9411 27.7649Z" fill="#5D5360"/>
</g>
<defs>
<clipPath id="clip0">
<rect width="50" height="50" fill="white"/>
</clipPath>
</defs>
</svg>
