<svg width="127" height="70" viewBox="0 0 127 70" fill="none" xmlns="http://www.w3.org/2000/svg">
<path d="M60.5643 24.0633V8.94982C60.5643 7.85247 61.4538 6.96295 62.5512 6.96295H85.7119C87.2332 6.96295 88.6007 7.88988 89.1702 9.29898L95.7252 25.6012H111.296C114.692 25.6012 117.668 27.8832 118.545 31.1628L121.28 41.3548H123.043C124.83 41.3548 126.276 42.8013 126.276 44.5887V46.1599C126.276 49.4145 123.637 52.054 120.382 52.054H60.5643V24.0633Z" fill="#242955"/>
<path d="M60.5643 19.4494H42.695L39.8145 24.8946H2.74572C1.78139 24.8946 0.999935 25.676 0.999935 26.6404V35.016H60.5643V19.4494Z" fill="white"/>
<path d="M60.5643 52.0498H2.74572C1.78139 52.0498 0.999935 51.2683 0.999935 50.304V35.0118H60.5643V52.0498Z" fill="#242955"/>
<path d="M91.3069 25.6635H65.8143V13.4306C65.8143 12.3332 66.7038 11.4437 67.8012 11.4437H83.5631C85.1343 11.4437 86.5351 12.4288 87.0713 13.9086L91.3069 25.6635Z" fill="#424242"/>
<path d="M43.2728 19.387L26.7004 10.2633C26.7004 10.2633 9.96997 0.636531 8.24082 1.01063C6.51166 1.38888 5.77594 3.40068 6.62389 4.98851C7.47184 6.57634 27.6481 24.8904 27.6481 24.8904H39.8187C39.8104 24.8946 42.6951 19.1958 43.2728 19.387Z" fill="#242955"/>
<path d="M7.24737 16.4857C7.24737 16.4857 7.33467 16.8557 7.85009 18.1068C8.36551 19.358 9.37556 21.3365 8.51514 21.7023C7.65472 22.0681 7.15593 21.428 7.05617 20.6673C6.96057 19.9066 6.66129 18.5516 5.94635 18.1359C5.22725 17.7203 4.45828 18.2357 4.79497 18.9506C5.13165 19.6656 5.41014 19.9565 5.11502 20.6673C4.8199 21.3739 5.37273 23.5229 7.15177 23.9012C8.9308 24.2794 11.2336 23.4148 10.9717 21.7106C10.7057 20.0064 8.644 16.3444 8.644 16.3444L7.24737 16.4857Z" fill="#424242"/>
<path d="M7.94556 12.9526C7.94556 12.9526 6.43671 13.468 6.179 14.4781C5.92545 15.4881 7.22232 16.9097 8.4693 16.3444C9.71629 15.7749 9.94907 15.2013 9.69551 14.4905C9.4378 13.7797 7.94556 12.9526 7.94556 12.9526Z" fill="#33AEFF"/>
<path d="M118.545 31.1586H110.623C110.623 31.1586 108.74 31.4579 108.74 33.6651C108.74 35.8722 110.419 37.4933 112.294 37.9547C114.168 38.4202 120.316 37.8924 120.316 37.8924L118.545 31.1586Z" fill="white"/>
<path d="M57.3887 19.3039C57.3887 19.3039 54.0509 16.2156 47.87 15.1182C41.6891 14.0209 36.9048 15.7084 36.9048 15.7084L43.2728 19.3829L57.3887 19.3039Z" fill="#424242"/>
<path d="M27.6439 24.8946L24.6137 22.1346L22.6477 24.8946H27.6439Z" fill="#424242"/>
<path opacity="0.2" d="M80.1464 11.4437L89.5819 20.8834L91.3069 25.6635H83.0435L68.8237 11.4437H80.1464Z" fill="white"/>
<path opacity="0.2" d="M65.8142 18.1276V13.4306C65.8142 12.9359 66.0012 12.487 66.3005 12.142L79.8262 25.6635H73.3502L65.8142 18.1276Z" fill="white"/>
<path opacity="0.2" d="M0.999935 43.5287C2.8912 44.7134 5.28125 45.8814 7.94565 46.4134C14.3759 47.6937 21.3674 42.0573 28.4129 38.8567C35.4583 35.6561 46.091 41.0347 51.4696 43.882C53.8472 45.1415 57.1268 45.7026 60.5643 45.5405V52.0498H2.74572C1.78139 52.0498 0.999935 51.2683 0.999935 50.304V43.5287Z" fill="#000001"/>
<path opacity="0.2" d="M60.5643 52.0498V45.5406C64.8997 45.3327 69.4844 43.9652 72.8222 41.3548C78.8036 36.6786 86.8259 37.5765 93.4224 39.368C100.019 41.1595 110.394 47.6937 117.951 47.1658C121.829 46.8956 124.435 45.1166 126.06 43.4539C126.193 43.8072 126.276 44.1897 126.276 44.5887V46.1599C126.276 49.4145 123.637 52.054 120.382 52.054H60.5643V52.0498Z" fill="#000001"/>
<g opacity="0.2">
<path opacity="0.2" d="M123.009 42.6018C123.009 42.6018 122.145 42.4729 120.848 42.3815C120.199 42.3316 119.443 42.29 118.632 42.2651C118.225 42.2568 117.809 42.2318 117.381 42.2318C116.957 42.2277 116.525 42.2235 116.093 42.2194C115.66 42.2235 115.228 42.2277 114.804 42.2318C114.38 42.2318 113.96 42.2526 113.553 42.2651C112.742 42.29 111.986 42.3316 111.337 42.3815C110.04 42.4729 109.176 42.6018 109.176 42.6018C109.176 42.6018 110.04 42.7306 111.337 42.8221C111.986 42.872 112.742 42.9135 113.553 42.9385C113.96 42.9468 114.376 42.9717 114.804 42.9717C115.228 42.9759 115.66 42.98 116.093 42.9842C116.525 42.98 116.957 42.9759 117.381 42.9717C117.805 42.9717 118.225 42.9468 118.632 42.9385C119.443 42.9094 120.199 42.872 120.848 42.8221C122.145 42.7306 123.009 42.6018 123.009 42.6018Z" fill="white"/>
</g>
<g opacity="0.2">
<path opacity="0.2" d="M115.71 29.3131C115.71 29.3131 115.573 29.1717 115.282 28.9348C114.991 28.7021 114.559 28.3612 113.944 28.0245C113.328 27.6961 112.539 27.3387 111.566 27.1683C111.08 27.0727 110.544 27.0685 110.007 27.0519C109.467 27.0436 108.893 27.0311 108.299 27.0186C105.917 26.9854 103.141 26.9189 100.169 26.8981C98.6805 26.8856 97.1426 26.8773 95.5838 26.8648C94.021 26.8607 92.4373 26.8565 90.8494 26.8524C89.2616 26.8565 87.6779 26.8607 86.1151 26.8648C84.5522 26.8773 83.0142 26.8856 81.5303 26.8981C78.5542 26.9189 75.7775 26.9854 73.3999 27.0186C71.0182 27.0519 69.0355 27.1309 67.6472 27.1599C66.2589 27.2057 65.465 27.2348 65.465 27.2348C65.465 27.2348 66.2589 27.2639 67.6472 27.3096C69.0355 27.3387 71.0182 27.4177 73.3999 27.4509C75.7817 27.4842 78.5583 27.5507 81.5303 27.5714C83.0184 27.5839 84.5563 27.5922 86.1151 27.6047C87.6779 27.6089 89.2616 27.613 90.8494 27.6172C92.4373 27.613 94.021 27.6089 95.5838 27.6047C97.1467 27.5922 98.6805 27.5839 100.169 27.5714C103.145 27.5465 105.921 27.4842 108.299 27.4509C108.893 27.4384 109.463 27.4301 110.007 27.4177C110.556 27.4052 111.055 27.3802 111.524 27.4467C112.468 27.559 113.258 27.8624 113.877 28.1534C114.496 28.4568 114.954 28.7519 115.257 28.9639C115.561 29.1801 115.71 29.3131 115.71 29.3131Z" fill="white"/>
</g>
<g opacity="0.2">
<path opacity="0.2" d="M39.6855 20.1228C39.6855 20.1228 39.2325 19.8318 38.4344 19.3372C37.6322 18.8508 36.4933 18.1359 35.1091 17.3129C33.7291 16.4857 32.108 15.5339 30.3664 14.528C29.4935 14.0292 28.5915 13.5096 27.6729 12.9859C26.7543 12.4663 25.819 11.9384 24.8838 11.4105C23.9444 10.8909 23.005 10.3713 22.0823 9.86007C21.1553 9.35296 20.2409 8.85833 19.3597 8.37616C17.5889 7.42014 15.9305 6.53893 14.5006 5.79489C13.0749 5.0467 11.8694 4.45231 11.034 4.02417C10.1943 3.6002 9.70799 3.37158 9.70799 3.37158C9.70799 3.37158 10.1611 3.66255 10.9591 4.15718C11.7614 4.64351 12.9003 5.35845 14.2844 6.18146C15.6644 7.00863 17.2855 7.9605 19.0271 8.9664C19.9 9.46519 20.802 9.98477 21.7206 10.5085C22.6392 11.0281 23.5745 11.556 24.5097 12.0839C25.4491 12.6034 26.3885 13.123 27.3113 13.6343C28.2382 14.1414 29.1527 14.636 30.0339 15.1182C31.8046 16.0742 33.4631 16.9554 34.893 17.6995C36.3187 18.4477 37.5241 19.0421 38.3596 19.4702C39.1992 19.89 39.6855 20.1228 39.6855 20.1228Z" fill="white"/>
</g>
<g opacity="0.2">
<path opacity="0.2" d="M59.1553 36.4209C59.1553 36.4209 58.2741 36.3918 56.732 36.346C55.1899 36.3169 52.991 36.238 50.3474 36.2047C47.7038 36.1715 44.6237 36.105 41.3192 36.0842C39.669 36.0717 37.9607 36.0634 36.2273 36.0509C34.494 36.0468 32.7316 36.0426 30.9692 36.0385C29.2068 36.0426 27.4486 36.0468 25.7111 36.0509C23.9778 36.0634 22.2694 36.0717 20.6192 36.0842C17.3147 36.105 14.2347 36.1715 11.591 36.2047C8.94744 36.238 6.74858 36.3169 5.20647 36.346C3.66436 36.3918 2.78316 36.4209 2.78316 36.4209C2.78316 36.4209 3.66436 36.45 5.20647 36.4957C6.74858 36.5248 8.94744 36.6038 11.591 36.637C14.2347 36.6703 17.3147 36.7368 20.6192 36.7576C22.2694 36.77 23.9778 36.7783 25.7111 36.7908C27.4444 36.795 29.2068 36.7991 30.9692 36.8033C32.7316 36.7991 34.4899 36.795 36.2273 36.7908C37.9607 36.7783 39.669 36.77 41.3192 36.7576C44.6237 36.7326 47.7038 36.6703 50.3474 36.637C52.991 36.6038 55.1899 36.5289 56.732 36.4957C58.2741 36.45 59.1553 36.4209 59.1553 36.4209Z" fill="white"/>
</g>
<path d="M60.5643 24.0633V8.94982C60.5643 7.85247 61.4538 6.96295 62.5512 6.96295H85.7119C87.2332 6.96295 88.6007 7.88988 89.1702 9.29898L95.7252 25.6012H111.296C114.692 25.6012 117.668 27.8832 118.545 31.1628L121.28 41.3548H123.043C124.83 41.3548 126.276 42.8013 126.276 44.5887V46.1599C126.276 49.4145 123.637 52.054 120.382 52.054H60.5643V24.0633Z" stroke="#292929" stroke-width="0.8" stroke-miterlimit="10"/>
<path d="M60.5643 19.4494H42.695L39.8145 24.8946H2.74572C1.78139 24.8946 0.999937 25.676 0.999937 26.6404V35.0159H60.5643V19.4494Z" stroke="#292929" stroke-miterlimit="10"/>
<path d="M60.5643 52.0498H2.74572C1.78139 52.0498 0.999937 51.2683 0.999937 50.304V35.0118H60.5643V52.0498Z" stroke="#292929" stroke-miterlimit="10"/>
<path d="M91.3069 25.6635H65.8143V13.4306C65.8143 12.3332 66.7038 11.4437 67.8012 11.4437H83.5631C85.1343 11.4437 86.5351 12.4288 87.0713 13.9086L91.3069 25.6635Z" stroke="#292929" stroke-miterlimit="10"/>
<path d="M121.28 41.3548H99.9692" stroke="#292929" stroke-miterlimit="10"/>
<path d="M83.9885 53.4966C82.303 46.4812 86.6237 39.4279 93.6391 37.7424C100.654 36.0569 107.708 40.3776 109.393 47.393C111.079 54.4083 106.758 61.4617 99.7427 63.1471C92.7273 64.8326 85.674 60.5119 83.9885 53.4966Z" fill="#424242"/>
<path d="M96.6853 58.6921C92.133 58.6921 88.4427 55.0017 88.4427 50.4495C88.4427 45.8972 92.133 42.2069 96.6853 42.2069C101.238 42.2069 104.928 45.8972 104.928 50.4495C104.928 55.0017 101.238 58.6921 96.6853 58.6921Z" fill="#C2C2C2"/>
<path d="M96.6853 57.017C93.0582 57.017 90.1179 54.0767 90.1179 50.4496C90.1179 46.8224 93.0582 43.8821 96.6853 43.8821C100.312 43.8821 103.253 46.8224 103.253 50.4496C103.253 54.0767 100.312 57.017 96.6853 57.017Z" fill="#888888"/>
<path d="M96.6853 53.7332C94.8717 53.7332 93.4015 52.2631 93.4015 50.4495C93.4015 48.6359 94.8717 47.1658 96.6853 47.1658C98.4988 47.1658 99.969 48.6359 99.969 50.4495C99.969 52.2631 98.4988 53.7332 96.6853 53.7332Z" fill="#C2C2C2"/>
<path d="M83.9885 53.4966C82.303 46.4812 86.6237 39.4279 93.6391 37.7424C100.654 36.0569 107.708 40.3776 109.393 47.393C111.079 54.4083 106.758 61.4617 99.7427 63.1471C92.7273 64.8326 85.674 60.5119 83.9885 53.4966Z" stroke="#292929" stroke-miterlimit="10"/>
<path d="M18.4074 59.6878C13.3055 54.5859 13.3055 46.3141 18.4074 41.2123C23.5093 36.1104 31.781 36.1104 36.8829 41.2123C41.9847 46.3141 41.9847 54.5859 36.8829 59.6878C31.781 64.7896 23.5092 64.7896 18.4074 59.6878Z" fill="#424242"/>
<path d="M27.6438 58.6921C23.0915 58.6921 19.4012 55.0017 19.4012 50.4495C19.4012 45.8972 23.0915 42.2069 27.6438 42.2069C32.196 42.2069 35.8864 45.8972 35.8864 50.4495C35.8864 55.0017 32.196 58.6921 27.6438 58.6921Z" fill="#C2C2C2"/>
<path d="M27.6438 57.0169C24.0167 57.0169 21.0764 54.0766 21.0764 50.4495C21.0764 46.8224 24.0167 43.882 27.6438 43.882C31.271 43.882 34.2113 46.8224 34.2113 50.4495C34.2113 54.0766 31.271 57.0169 27.6438 57.0169Z" fill="#888888"/>
<path d="M27.644 53.7332C25.8305 53.7332 24.3603 52.2631 24.3603 50.4495C24.3603 48.6359 25.8305 47.1658 27.644 47.1658C29.4576 47.1658 30.9277 48.6359 30.9277 50.4495C30.9277 52.2631 29.4576 53.7332 27.644 53.7332Z" fill="#C2C2C2"/>
<path d="M18.4074 59.6878C13.3055 54.5859 13.3055 46.3141 18.4074 41.2123C23.5093 36.1104 31.781 36.1104 36.8829 41.2123C41.9847 46.3141 41.9847 54.5859 36.8829 59.6878C31.781 64.7896 23.5092 64.7896 18.4074 59.6878Z" stroke="#292929" stroke-miterlimit="10"/>
<path d="M118.545 31.1586H111.229C109.845 31.1586 108.727 32.2809 108.727 33.6609C108.727 36.0343 110.652 37.9589 113.025 37.9589H120.37" stroke="#292929" stroke-miterlimit="10"/>
<path d="M43.913 19.4494L9.92843 1.31402C8.73132 0.673903 7.24325 1.08541 6.54493 2.24926C5.9256 3.28011 6.11265 4.59776 6.9897 5.42077L27.777 24.8945" stroke="#292929" stroke-miterlimit="10"/>
<path d="M7.86267 6.24384V13.3641" stroke="#292929" stroke-width="1.849" stroke-miterlimit="10"/>
<path d="M6.17915 14.7191C6.17915 15.6959 6.96891 16.4857 7.94572 16.4857C8.92252 16.4857 9.71228 15.6959 9.71228 14.7191C9.71228 13.7423 8.92252 12.9526 7.94572 12.9526C6.96891 12.9526 6.17915 13.7423 6.17915 14.7191Z" fill="white" stroke="#292929" stroke-width="1.849" stroke-miterlimit="10"/>
<path d="M8.63564 16.3444C8.63564 16.3444 9.64154 18.4019 10.2692 19.4494C11.2127 21.0331 11.8653 24.1422 7.62558 23.8845C4.9986 23.7224 4.84065 21.4986 5.16071 20.4761C5.48077 19.4494 4.30443 18.9382 4.89052 18.2357C5.48076 17.5332 6.95221 18.4934 6.95221 19.7736C6.95221 21.0539 7.55907 22.6251 8.87257 21.4404C9.78287 20.6216 7.09353 18.3521 7.24733 16.3486" stroke="#292929" stroke-miterlimit="10"/>
<path d="M57.5549 19.4494C57.5549 19.4494 54.4915 16.573 49.7405 15.4798C42.5038 13.813 36.9048 15.7126 36.9048 15.7126" stroke="#292929" stroke-miterlimit="10"/>
<path d="M24.8256 22.1346C24.8256 22.1346 22.8428 24.0633 22.6475 24.8946" stroke="#292929" stroke-miterlimit="10"/>
<path d="M63.1248 49.3605V10.7704C63.1248 9.93906 63.7981 9.26569 64.6295 9.26569H84.5314C86.14 9.26569 87.5823 10.2633 88.1518 11.768L93.4182 25.6636V35.016C86.3104 35.016 80.5452 40.7812 80.5452 47.889V49.3605H63.1248V49.3605Z" stroke="#292929" stroke-width="0.5" stroke-miterlimit="10"/>
</svg>
